# xmcd
#
# Track frame offsets:
#	150
#	13965
#	30822
#	43050
#	56302
#	67805
#	79042
#	89520
#	99947
#	112665
#	124955
#	137687
#	146100
#	155895
#	170637
#	178737
#	188005
#	201460
#	211525
#	220295
#
# Disc length: 3043 seconds
#
# Revision: 0
# Processed by: cddbd v1.4PL0 Copyright (c) Steve Scherf et al.
# Submitted via: audiograbber 1.80
#
DISCID=170be114
DTITLE=Willie Nelson - Country Love Songs
DYEAR=1900
DGENRE=
TTITLE0=Home is Where You're Happy
TTITLE1=I Let My Mind Wonder
TTITLE2=I Can't Find The Time
TTITLE3=You'll Always Have Someone
TTITLE4=December Days
TTITLE5=Suffering In Silence
TTITLE6=I Feel Sorry For Him
TTITLE7=Blame It On The Time
TTITLE8=I Just Don't Understand
TTITLE9=Shelter Of My Arms
TTITLE10=Any Old Arms Won't Do
TTITLE11=Slow Down Old World
TTITLE12=I Didn't Sleep A Wink
TTITLE13=And So Will You My Love
TTITLE14=Things To Remember
TTITLE15=One Step beyond
TTITLE16=Undo The Wrong
TTITLE17=Healing Hands Of Time
TTITLE18=Why Are You Picking On Me?
TTITLE19=You Wouldn't Cross The Street To Say Goodbye
EXTD=
EXTT0=
EXTT1=
EXTT2=
EXTT3=
EXTT4=
EXTT5=
EXTT6=
EXTT7=
EXTT8=
EXTT9=
EXTT10=
EXTT11=
EXTT12=
EXTT13=
EXTT14=
EXTT15=
EXTT16=
EXTT17=
EXTT18=
EXTT19=
PLAYORDER=
